<?xml version="1.0" encoding="UTF-8" standalone="no"?>
<!DOCTYPE svg PUBLIC "-//W3C//DTD SVG 1.1//EN" "http://www.w3.org/Graphics/SVG/1.1/DTD/svg11.dtd">
<svg xmlns="http://www.w3.org/2000/svg" xmlns:xlink="http://www.w3.org/1999/xlink" version="1.1" width="200.019pt" height="114.98pt" viewBox="0 0 200.019 114.98">
<path transform="matrix(1,0,0,-1,.797,114.18301)" d="M 0 0 L 141.73404 28.3468 L 198.42766 113.38724 L 56.69362 85.04042 Z " fill="#e6e6f2"/>
<path transform="matrix(1,0,0,-1,.797,114.18301)" stroke-width="1.59404" stroke-linecap="butt" stroke-miterlimit="10" stroke-linejoin="miter" fill="none" stroke="#000080" d="M 0 0 L 138.01477 27.60306 "/>
<path transform="matrix(.98242,-.19646,-.19646,-.98242,138.81177,86.57996)" d="M 3.78581 0 L -2.27148 3.02866 L 0 0 L -2.27148 -3.02866 " fill="#000080"/>
<path transform="matrix(1,0,0,-1,.797,114.18301)" stroke-width="1.59404" stroke-linecap="butt" stroke-miterlimit="10" stroke-linejoin="miter" fill="none" stroke="#800000" d="M 0 0 L 54.58714 81.8808 "/>
<path transform="matrix(.55641,-.8346,-.8346,-.55641,55.384134,32.302225)" d="M 3.78581 0 L -2.27148 3.02866 L 0 0 L -2.27148 -3.02866 " fill="#800000"/>
<path transform="matrix(1,0,0,-1,.797,114.18301)" stroke-width="1.59404" stroke-linecap="butt" stroke-dasharray="2.98883,2.98883" stroke-miterlimit="10" stroke-linejoin="miter" fill="none" stroke="#800000" d="M 141.73404 28.3468 L 196.3212 110.2276 "/>
<path transform="matrix(.55641,-.8346,-.8346,-.55641,197.11818,3.955429)" d="M 3.78581 0 L -2.27148 3.02866 L 0 0 L -2.27148 -3.02866 " fill="#800000"/>
<path transform="matrix(1,0,0,-1,.797,114.18301)" stroke-width="1.59404" stroke-linecap="butt" stroke-dasharray="2.98883,2.98883" stroke-miterlimit="10" stroke-linejoin="miter" fill="none" stroke="#000080" d="M 56.69362 85.04042 L 194.70839 112.6435 "/>
<path transform="matrix(.98242,-.19646,-.19646,-.98242,195.50539,1.5395279)" d="M 3.78581 0 L -2.27148 3.02866 L 0 0 L -2.27148 -3.02866 " fill="#000080"/>
<symbol id="font_0_1">
<path d="M 1.098 0 C 1.12 0 1.1350001 0 1.1350001 .029 C 1.1350001 .039000006 1.1350001 .049999983 1.1220001 .05700001 C 1.067 .083000008 .95300009 .137 .86800006 .28800003 C .85600009 .307 .855 .308 .82900008 .308 C .81200006 .308 .79300007 .308 .79300007 .28599999 C .79300007 .272 .8510001 .15599999 .9560001 .072999987 L .051000008 .072999987 C .036 .072999987 0 .072999987 0 .037 C 0 0 .035000005 0 .051000008 0 L 1.098 0 Z "/>
</symbol>
<use xlink:href="#font_0_1" transform="matrix(6.9738,0,0,-6.9738,67.69993,88.577617)" fill="#000080"/>
<symbol id="font_1_1">
<path d="M .48000006 .38000003 C .48600004 .39400003 .49000005 .40100003 .554 .40100003 L .554 .44800005 C .529 .44600005 .5 .44500003 .47500006 .44500003 C .45000003 .44500003 .40500004 .44700004 .38400004 .44800005 L .38400004 .40100003 C .40300004 .40100003 .43200005 .39800004 .43200005 .39000003 C .43200005 .38900004 .43100003 .38700003 .42700003 .37800003 L .31100003 .128 L .18400002 .40100003 L .238 .40100003 L .238 .44800005 C .20500002 .44600005 .115 .44500003 .114 .44500003 C .086 .44500003 .041 .44700004 0 .44800005 L 0 .40100003 L .064 .40100003 L .23900002 .025000003 C .25100003 0 .26400004 0 .277 0 C .29400004 0 .30400003 .003 .314 .024000003 L .48000006 .38000003 Z "/>
</symbol>
<use xlink:href="#font_1_1" transform="matrix(9.9626,0,0,-9.9626,68.81902,96.529857)" fill="#000080"/>
<use xlink:href="#font_0_1" transform="matrix(6.9738,0,0,-6.9738,33.21393,77.552608)" fill="#800000"/>
<symbol id="font_1_2">
<path d="M .7120001 .38000003 C .71700009 .39300005 .7210001 .40100003 .7800001 .40100003 L .7800001 .44800005 C .7570001 .44600005 .72700008 .44500003 .70300009 .44500003 C .67600008 .44500003 .62900009 .44700004 .60700008 .44800005 L .60700008 .40100003 C .61600008 .40100003 .6650001 .40000005 .6650001 .38900004 C .6650001 .38600005 .66200008 .38000003 .6610001 .37700004 L .55600008 .12100001 L .442 .40100003 L .498 .40100003 L .498 .44800005 C .46600003 .44700004 .414 .44500003 .384 .44500003 C .342 .44500003 .3 .44700004 .284 .44800005 L .284 .40100003 L .34300003 .40100003 C .36400003 .351 .36400003 .34900005 .36400003 .34800003 C .36400003 .344 .361 .33800004 .36 .33500005 L .28100003 .143 L .176 .40100003 L .232 .40100003 L .232 .44800005 C .191 .44600005 .15 .44500003 .109000008 .44500003 C .07800001 .44500003 .034 .44700004 0 .44800005 L 0 .40100003 L .059000009 .40100003 L .21200001 .027000003 C .21900001 .01 .223 0 .248 0 C .273 0 .277 .01 .284 .027000003 L .39000003 .286 L .49600003 .027000003 C .503 .01 .507 0 .53200009 0 C .55700007 0 .56100007 .01 .5680001 .027000003 L .7120001 .38000003 Z "/>
</symbol>
<use xlink:href="#font_1_2" transform="matrix(9.9626,0,0,-9.9626,33.209066,85.50485)" fill="#800000"/>
<path transform="matrix(1,0,0,-1,.797,114.18301)" stroke-width=".3985" stroke-linecap="butt" stroke-miterlimit="10" stroke-linejoin="miter" fill="none" stroke="#000000" d="M 14.17339 2.83484 C 13.43706 6.52014 11.26546 9.764 9.80182 10.74007 "/>
<path transform="matrix(-.83461,-.55663,-.55663,.83461,10.59882,103.442958)" d="M 1.99252 0 L -1.19551 1.59401 L 0 0 L -1.19551 -1.59401 "/>
<symbol id="font_2_1">
<path d="M .41300003 .511 C .41300003 .577 .395 .716 .293 .716 C .15400002 .716 0 .43400003 0 .20500002 C 0 .111 .029 0 .12 0 C .261 0 .41300003 .28700004 .41300003 .511 M .106 .374 C .123 .43800003 .143 .518 .183 .589 C .21000001 .638 .24700001 .694 .29200004 .694 C .34100003 .694 .34700004 .63 .34700004 .573 C .34700004 .524 .33900003 .47300003 .31500004 .374 L .106 .374 M .30600003 .34200005 C .29500003 .29600004 .27400003 .21100001 .23600003 .13900002 C .201 .071 .16300002 .022000002 .12 .022000002 C .087000008 .022000002 .066 .051000004 .066 .14400001 C .066 .18600002 .072000008 .24400002 .098 .34200005 L .30600003 .34200005 Z "/>
</symbol>
<use xlink:href="#font_2_1" transform="matrix(9.9626,0,0,-9.9626,16.07343,105.10359)"/>
</svg>
